{"accessors":[{"bufferView":0,"componentType":5121,"count":384,"max":[80],"min":[0],"type":"SCALAR"},{"bufferView":1,"componentType":5126,"count":81,"max":[1.0,0.0,1.0],"min":[-1.0,0.0,-1.0],"type":"VEC3"},{"bufferView":2,"componentType":5126,"count":81,"max":[0.0,1.0,-0.0],"min":[0.0,1.0,-0.0],"type":"VEC3"},{"bufferView":3,"componentType":5126,"count":81,"max":[0.0,1.0],"min":[0.0,1.0],"type":"VEC2"},{"bufferView":4,"componentType":5121,"count":36,"max":[23],"min":[0],"type":"SCALAR"},{"bufferView":5,"componentType":5126,"count":24,"max":[1.0,1.0,1.0],"min":[-1.0,-1.0,-1.0],"type":"VEC3"},{"bufferView":6,"componentType":5126,"count":24,"max":[1.0,1.0,1.0],"min":[-1.0,-1.0,-1.0],"type":"VEC3"},{"bufferView":7,"componentType":5126,"count":24,"max":[0.875,1.0],"min":[0.125,0.0],"type":"VEC2"},{"bufferView":8,"componentType":5121,"count":36,"max":[23],"min":[0],"type":"SCALAR"},{"bufferView":9,"componentType":5126,"count":24,"max":[1.0,1.0,1.0],"min":[-1.0,-1.0,-1.0],"type":"VEC3"},{"bufferView":10,"componentType":5126,"count":24,"max":[1.0,1.0,1.0],"min":[-1.0,-1.0,-1.0],"type":"VEC3"},{"bufferView":11,"componentType":5126,"count":24,"max":[0.875,1.0],"min":[0.125,0.0],"type":"VEC2"},{"bufferView":12,"componentType":5121,"count":36,"max":[23],"min":[0],"type":"SCALAR"},{"bufferView":13,"componentType":5126,"count":24,"max":[1.0,1.0,1.0],"min":[-1.0,-1.0,-1.0],"type":"VEC3"},{"bufferView":14,"componentType":5126,"count":24,"max":[1.0,1.0,1.0],"min":[-1.0,-1.0,-1.0],"type":"VEC3"},{"bufferView":15,"componentType":5126,"count":24,"max":[0.875,1.0],"min":[0.125,0.0],"type":"VEC2"},{"bufferView":16,"componentType":5121,"count":36,"max":[23],"min":[0],"type":"SCALAR"},{"bufferView":17,"componentType":5126,"count":24,"max":[1.0,1.0,1.0],"min":[-1.0,-1.0,-1.0],"type":"VEC3"},{"bufferView":18,"componentType":5126,"count":24,"max":[1.0,1.0,1.0],"min":[-1.0,-1.0,-1.0],"type":"VEC3"},{"bufferView":19,"componentType":5126,"count":24,"max":[0.875,1.0],"min":[0.125,0.0],"type":"VEC2"},{"bufferView":20,"componentType":5121,"count":6,"max":[3],"min":[0],"type":"SCALAR"},{"bufferView":21,"componentType":5126,"count":4,"max":[1.0,0.0,1.0],"min":[-1.0,0.0,-1.0],"type":"VEC3"},{"bufferView":22,"componentType":5126,"count":4,"max":[0.0,1.0,-0.0],"min":[0.0,1.0,-0.0],"type":"VEC3"},{"bufferView":23,"componentType":5126,"count":4,"max":[1.0,1.0],"min":[0.0,0.0],"type":"VEC2"},{"bufferView":24,"componentType":5121,"count":6,"max":[3],"min":[0],"type":"SCALAR"},{"bufferView":25,"componentType":5126,"count":4,"max":[1.0,0.0,1.0],"min":[-1.0,0.0,-1.0],"type":"VEC3"},{"bufferView":26,"componentType":5126,"count":4,"max":[0.0,1.0,-0.0],"min":[0.0,1.0,-0.0],"type":"VEC3"},{"bufferView":27,"componentType":5126,"count":4,"max":[1.0,1.0],"min":[0.0,0.0],"type":"VEC2"},{"bufferView":28,"componentType":5121,"count":6,"max":[3],"min":[0],"type":"SCALAR"},{"bufferView":29,"componentType":5126,"count":4,"max":[1.0,0.0,1.0],"min":[-1.0,0.0,-1.0],"type":"VEC3"},{"bufferView":30,"componentType":5126,"count":4,"max":[0.0,1.0,-0.0],"min":[0.0,1.0,-0.0],"type":"VEC3"},{"bufferView":31,"componentType":5126,"count":4,"max":[1.0,1.0],"min":[0.0,0.0],"type":"VEC2"},{"bufferView":32,"componentType":5121,"count":6,"max":[3],"min":[0],"type":"SCALAR"},{"bufferView":33,"componentType":5126,"count":4,"max":[1.0,0.0,1.0],"min":[-1.0,0.0,-1.0],"type":"VEC3"},{"bufferView":34,"componentType":5126,"count":4,"max":[0.0,1.0,-0.0],"min":[0.0,1.0,-0.0],"type":"VEC3"},{"bufferView":35,"componentType":5126,"count":4,"max":[1.0,1.0],"min":[0.0,0.0],"type":"VEC2"},{"bufferView":36,"componentType":5121,"count":6,"max":[3],"min":[0],"type":"SCALAR"},{"bufferView":37,"componentType":5126,"count":4,"max":[1.0,0.0,1.0],"min":[-1.0,0.0,-1.0],"type":"VEC3"},{"bufferView":38,"componentType":5126,"count":4,"max":[0.0,1.0,-0.0],"min":[0.0,1.0,-0.0],"type":"VEC3"},{"bufferView":39,"componentType":5126,"count":4,"max":[1.0,1.0],"min":[0.0,0.0],"type":"VEC2"},{"bufferView":40,"componentType":5121,"count":6,"max":[3],"min":[0],"type":"SCALAR"},{"bufferView":41,"componentType":5126,"count":4,"max":[1.0,0.0,1.0],"min":[-1.0,0.0,-1.0],"type":"VEC3"},{"bufferView":42,"componentType":5126,"count":4,"max":[0.0,1.0,-0.0],"min":[0.0,1.0,-0.0],"type":"VEC3"},{"bufferView":43,"componentType":5126,"count":4,"max":[1.0,1.0],"min":[0.0,0.0],"type":"VEC2"},{"bufferView":44,"componentType":5121,"count":6,"max":[3],"min":[0],"type":"SCALAR"},{"bufferView":45,"componentType":5126,"count":4,"max":[1.0,0.0,1.0],"min":[-1.0,0.0,-1.0],"type":"VEC3"},{"bufferView":46,"componentType":5126,"count":4,"max":[0.0,1.0,-0.0],"min":[0.0,1.0,-0.0],"type":"VEC3"},{"bufferView":47,"componentType":5126,"count":4,"max":[1.0,1.0],"min":[0.0,0.0],"type":"VEC2"},{"bufferView":48,"componentType":5121,"count":6,"max":[3],"min":[0],"type":"SCALAR"},{"bufferView":49,"componentType":5126,"count":4,"max":[1.0,0.0,1.0],"min":[-1.0,0.0,-1.0],"type":"VEC3"},{"bufferView":50,"componentType":5126,"count":4,"max":[0.0,-1.0,-0.0],"min":[0.0,-1.0,-0.0],"type":"VEC3"},{"bufferView":51,"componentType":5126,"count":4,"max":[1.0,1.0],"min":[0.0,0.0],"type":"VEC2"},{"bufferView":52,"componentType":5123,"count":2904,"max":[1965],"min":[0],"type":"SCALAR"},{"bufferView":53,"componentType":5126,"count":1966,"max":[1.3671875,0.984375,0.8515625],"min":[-1.3671875,-0.984375,-0.8515625],"type":"VEC3"},{"bufferView":54,"componentType":5126,"count":1966,"max":[1.0,0.9970182776451111,1.0],"min":[-1.0,-0.992402970790863,-0.9864740371704102],"type":"VEC3"},{"bufferView":55,"componentType":5126,"count":1966,"max":[0.9998599886894226,0.9907389879226685],"min":[0.00014000000373926014,0.014658987522125244],"type":"VEC2"}],"asset":{"generator":"Verge3D for Blender v4.10.0","version":"2.0"},"bufferViews":[{"buffer":0,"byteLength":384,"byteOffset":0,"target":34963},{"buffer":0,"byteLength":972,"byteOffset":384,"target":34962},{"buffer":0,"byteLength":972,"byteOffset":1356,"target":34962},{"buffer":0,"byteLength":648,"byteOffset":2328,"target":34962},{"buffer":0,"byteLength":36,"byteOffset":2976,"target":34963},{"buffer":0,"byteLength":288,"byteOffset":3012,"target":34962},{"buffer":0,"byteLength":288,"byteOffset":3300,"target":34962},{"buffer":0,"byteLength":192,"byteOffset":3588,"target":34962},{"buffer":0,"byteLength":36,"byteOffset":3780,"target":34963},{"buffer":0,"byteLength":288,"byteOffset":3816,"target":34962},{"buffer":0,"byteLength":288,"byteOffset":4104,"target":34962},{"buffer":0,"byteLength":192,"byteOffset":4392,"target":34962},{"buffer":0,"byteLength":36,"byteOffset":4584,"target":34963},{"buffer":0,"byteLength":288,"byteOffset":4620,"target":34962},{"buffer":0,"byteLength":288,"byteOffset":4908,"target":34962},{"buffer":0,"byteLength":192,"byteOffset":5196,"target":34962},{"buffer":0,"byteLength":36,"byteOffset":5388,"target":34963},{"buffer":0,"byteLength":288,"byteOffset":5424,"target":34962},{"buffer":0,"byteLength":288,"byteOffset":5712,"target":34962},{"buffer":0,"byteLength":192,"byteOffset":6000,"target":34962},{"buffer":0,"byteLength":6,"byteOffset":6192,"target":34963},{"buffer":0,"byteLength":48,"byteOffset":6200,"target":34962},{"buffer":0,"byteLength":48,"byteOffset":6248,"target":34962},{"buffer":0,"byteLength":32,"byteOffset":6296,"target":34962},{"buffer":0,"byteLength":6,"byteOffset":6328,"target":34963},{"buffer":0,"byteLength":48,"byteOffset":6336,"target":34962},{"buffer":0,"byteLength":48,"byteOffset":6384,"target":34962},{"buffer":0,"byteLength":32,"byteOffset":6432,"target":34962},{"buffer":0,"byteLength":6,"byteOffset":6464,"target":34963},{"buffer":0,"byteLength":48,"byteOffset":6472,"target":34962},{"buffer":0,"byteLength":48,"byteOffset":6520,"target":34962},{"buffer":0,"byteLength":32,"byteOffset":6568,"target":34962},{"buffer":0,"byteLength":6,"byteOffset":6600,"target":34963},{"buffer":0,"byteLength":48,"byteOffset":6608,"target":34962},{"buffer":0,"byteLength":48,"byteOffset":6656,"target":34962},{"buffer":0,"byteLength":32,"byteOffset":6704,"target":34962},{"buffer":0,"byteLength":6,"byteOffset":6736,"target":34963},{"buffer":0,"byteLength":48,"byteOffset":6744,"target":34962},{"buffer":0,"byteLength":48,"byteOffset":6792,"target":34962},{"buffer":0,"byteLength":32,"byteOffset":6840,"target":34962},{"buffer":0,"byteLength":6,"byteOffset":6872,"target":34963},{"buffer":0,"byteLength":48,"byteOffset":6880,"target":34962},{"buffer":0,"byteLength":48,"byteOffset":6928,"target":34962},{"buffer":0,"byteLength":32,"byteOffset":6976,"target":34962},{"buffer":0,"byteLength":6,"byteOffset":7008,"target":34963},{"buffer":0,"byteLength":48,"byteOffset":7016,"target":34962},{"buffer":0,"byteLength":48,"byteOffset":7064,"target":34962},{"buffer":0,"byteLength":32,"byteOffset":7112,"target":34962},{"buffer":0,"byteLength":6,"byteOffset":7144,"target":34963},{"buffer":0,"byteLength":48,"byteOffset":7152,"target":34962},{"buffer":0,"byteLength":48,"byteOffset":7200,"target":34962},{"buffer":0,"byteLength":32,"byteOffset":7248,"target":34962},{"buffer":0,"byteLength":5808,"byteOffset":7280,"target":34963},{"buffer":0,"byteLength":23592,"byteOffset":13088,"target":34962},{"buffer":0,"byteLength":23592,"byteOffset":36680,"target":34962},{"buffer":0,"byteLength":15728,"byteOffset":60272,"target":34962}],"buffers":[{"byteLength":76000,"uri":"untitled.bin"}],"cameras":[{"extensions":{"S8S_v3d_camera":{"controls":"ORBIT","enablePan":true,"moveSpeed":1.0,"orbitMaxDistance":100.0,"orbitMaxPolarAngle":3.1415927410125732,"orbitMaxZoom":100.0,"orbitMinDistance":0.0,"orbitMinPolarAngle":0.0,"orbitMinZoom":0.009999999776482582,"orbitTarget":[0.0,0.0,-0.0],"rotateSpeed":1.0,"viewportFitInitialAspect":1.7777777777777777,"viewportFitType":"AUTO"}},"name":"Camera.001","perspective":{"aspectRatio":1.7777777777777777,"yfov":0.39959652046304894,"zfar":1000.0,"znear":0.10000000149011612},"type":"perspective"}],"extensions":{"S8S_v3d_lights":{"lights":[{"color":[1.0,1.0,1.0],"decay":2,"distance":31.622776955095866,"intensity":1000.0,"name":"Light","power":1000.0,"profile":"blender","shadow":{"bias":-0.0018,"cameraFar":31.622776955095866,"cameraFov":0,"cameraNear":0.05000000074505806,"enabled":true,"expBias":2.5,"mapSize":512,"radius":1.0,"slopeScaledBias":2.5},"type":"point"}]}},"extensionsUsed":["S8S_v3d_materials","S8S_v3d_camera","S8S_v3d_lights","S8S_v3d_mesh","S8S_v3d_node","S8S_v3d_scene"],"materials":[{"alphaMode":"OPAQUE","extensions":{"S8S_v3d_materials":{"gtaoVisible":true,"materialIndex":0,"nodeGraph":{"edges":[{"fromNode":0,"fromOutput":0,"toInput":0,"toNode":1}],"nodes":[{"inputs":[[0.8008036613464355,0.0027870372869074345,0.5472986698150635,1.0],0.0,0.5,1.5,1.0,[0.0,0.0,0.0],0.0,[1.0,0.20000000298023224,0.10000000149011612],0.05000000074505806,1.399999976158142,0.0,0.5,[1.0,1.0,1.0,1.0],0.0,0.0,[0.0,0.0,0.0],0.0,0.0,0.029999999329447746,1.5,[1.0,1.0,1.0,1.0],[0.0,0.0,0.0],0.0,0.5,[1.0,1.0,1.0,1.0],[1.0,1.0,1.0,1.0],0.0],"is_active_output":false,"name":"Principled BSDF","outputs":[[0,0,0,0]],"type":"BSDF_PRINCIPLED_BL"},{"inputs":[[0,0,0,0],[0,0,0,0],[0.0,0.0,0.0],0.0],"is_active_output":true,"name":"Material Output","outputs":[],"type":"OUTPUT_MATERIAL_BL"}]},"useCastShadows":true}},"name":"Material.001"},{"alphaMode":"OPAQUE","extensions":{"S8S_v3d_materials":{"gtaoVisible":true,"materialIndex":0,"nodeGraph":{"edges":[{"fromNode":0,"fromOutput":0,"toInput":0,"toNode":1}],"nodes":[{"inputs":[[0.8030762672424316,0.19072318077087402,0.4190552830696106,1.0],0.0,0.5,1.5,1.0,[0.0,0.0,0.0],0.0,[1.0,0.20000000298023224,0.10000000149011612],0.05000000074505806,1.399999976158142,0.0,0.5,[1.0,1.0,1.0,1.0],0.0,0.0,[0.0,0.0,0.0],0.0,0.0,0.029999999329447746,1.5,[1.0,1.0,1.0,1.0],[0.0,0.0,0.0],0.0,0.5,[1.0,1.0,1.0,1.0],[1.0,1.0,1.0,1.0],0.0],"is_active_output":false,"name":"Principled BSDF","outputs":[[0,0,0,0]],"type":"BSDF_PRINCIPLED_BL"},{"inputs":[[0,0,0,0],[0,0,0,0],[0.0,0.0,0.0],0.0],"is_active_output":true,"name":"Material Output","outputs":[],"type":"OUTPUT_MATERIAL_BL"}]},"useCastShadows":true}},"name":"Material.002"},{"alphaMode":"OPAQUE","extensions":{"S8S_v3d_materials":{"gtaoVisible":true,"materialIndex":0,"nodeGraph":{"edges":[{"fromNode":1,"fromOutput":0,"toInput":0,"toNode":0}],"nodes":[{"inputs":[[0,0,0,0],[0,0,0,0]],"is_active_output":true,"name":"World Output","outputs":[],"type":"OUTPUT_WORLD_BL"},{"inputs":[[0.050907354801893234,0.023207420483231544,0.033544737845659256,1.0],1.0],"is_active_output":false,"name":"Background","outputs":[[0,0,0,0]],"type":"BACKGROUND_BL"}]},"useCastShadows":true}},"name":"Verge3D_Environment_World"},{"extensions":{"S8S_v3d_materials":{"nodeGraph":{"edges":[{"fromNode":1,"fromOutput":0,"toInput":0,"toNode":0}],"nodes":[{"inputs":[[0,0,0,0],[0,0,0,0],[0,0,0]],"is_active_output":true,"name":"Material Output","outputs":[],"type":"OUTPUT_MATERIAL_BL"},{"inputs":[[0.800000011920929,0.800000011920929,0.800000011920929,1.0],0.0,[0.0,0.0,0.0]],"is_active_output":false,"name":"Diffuse BSDF","outputs":[[0,0,0,0]],"type":"BSDF_DIFFUSE_BL"}]},"useCastShadows":true,"useShadows":true}},"name":"v3d_default_material"}],"meshes":[{"extensions":{"S8S_v3d_mesh":{"colorLayers":{},"uvLayers":{"UVMap":"TEXCOORD_0"}}},"name":"Circle.001","primitives":[{"attributes":{"NORMAL":2,"POSITION":1,"TEXCOORD_0":3},"indices":0,"material":0,"mode":4}]},{"extensions":{"S8S_v3d_mesh":{"colorLayers":{},"uvLayers":{}}},"name":"Cube.003","primitives":[{"attributes":{"NORMAL":6,"POSITION":5,"TEXCOORD_0":7},"indices":4,"material":3,"mode":4}]},{"extensions":{"S8S_v3d_mesh":{"colorLayers":{},"uvLayers":{}}},"name":"Cube.004","primitives":[{"attributes":{"NORMAL":10,"POSITION":9,"TEXCOORD_0":11},"indices":8,"material":3,"mode":4}]},{"extensions":{"S8S_v3d_mesh":{"colorLayers":{},"uvLayers":{}}},"name":"Cube.005","primitives":[{"attributes":{"NORMAL":14,"POSITION":13,"TEXCOORD_0":15},"indices":12,"material":3,"mode":4}]},{"extensions":{"S8S_v3d_mesh":{"colorLayers":{},"uvLayers":{}}},"name":"Cube.006","primitives":[{"attributes":{"NORMAL":18,"POSITION":17,"TEXCOORD_0":19},"indices":16,"material":3,"mode":4}]},{"extensions":{"S8S_v3d_mesh":{"colorLayers":{},"uvLayers":{"UVMap":"TEXCOORD_0"}}},"name":"Plane.002","primitives":[{"attributes":{"NORMAL":22,"POSITION":21,"TEXCOORD_0":23},"indices":20,"material":1,"mode":4}]},{"extensions":{"S8S_v3d_mesh":{"colorLayers":{},"uvLayers":{"UVMap":"TEXCOORD_0"}}},"name":"Plane.003","primitives":[{"attributes":{"NORMAL":26,"POSITION":25,"TEXCOORD_0":27},"indices":24,"material":1,"mode":4}]},{"extensions":{"S8S_v3d_mesh":{"colorLayers":{},"uvLayers":{"UVMap":"TEXCOORD_0"}}},"name":"Plane.004","primitives":[{"attributes":{"NORMAL":30,"POSITION":29,"TEXCOORD_0":31},"indices":28,"material":1,"mode":4}]},{"extensions":{"S8S_v3d_mesh":{"colorLayers":{},"uvLayers":{"UVMap":"TEXCOORD_0"}}},"name":"Plane.005","primitives":[{"attributes":{"NORMAL":34,"POSITION":33,"TEXCOORD_0":35},"indices":32,"material":1,"mode":4}]},{"extensions":{"S8S_v3d_mesh":{"colorLayers":{},"uvLayers":{"UVMap":"TEXCOORD_0"}}},"name":"Plane.006","primitives":[{"attributes":{"NORMAL":38,"POSITION":37,"TEXCOORD_0":39},"indices":36,"material":1,"mode":4}]},{"extensions":{"S8S_v3d_mesh":{"colorLayers":{},"uvLayers":{"UVMap":"TEXCOORD_0"}}},"name":"Plane.007","primitives":[{"attributes":{"NORMAL":42,"POSITION":41,"TEXCOORD_0":43},"indices":40,"material":1,"mode":4}]},{"extensions":{"S8S_v3d_mesh":{"colorLayers":{},"uvLayers":{"UVMap":"TEXCOORD_0"}}},"name":"Plane.009","primitives":[{"attributes":{"NORMAL":46,"POSITION":45,"TEXCOORD_0":47},"indices":44,"material":1,"mode":4}]},{"extensions":{"S8S_v3d_mesh":{"colorLayers":{},"uvLayers":{"UVMap":"TEXCOORD_0"}}},"name":"Plane.029","primitives":[{"attributes":{"NORMAL":50,"POSITION":49,"TEXCOORD_0":51},"indices":48,"material":1,"mode":4}]},{"extensions":{"S8S_v3d_mesh":{"colorLayers":{},"uvLayers":{}}},"name":"Suzanne","primitives":[{"attributes":{"NORMAL":54,"POSITION":53,"TEXCOORD_0":55},"indices":52,"material":3,"mode":4}]}],"nodes":[{"extensions":{"S8S_v3d_node":{"frustumCulling":true,"groupNames":["Collection"],"hidden":false,"hidpiCompositing":false,"objectColor":[1.0,1.0,1.0,1.0],"objectIndex":0,"renderOrder":0,"useShadows":true}},"mesh":2,"name":"Cube.002","scale":[0.25179606676101685,2.6418402194976807,6.433130264282227],"translation":[7.0376715660095215,3.2698750495910645,3.4631946086883545]},{"extensions":{"S8S_v3d_node":{"frustumCulling":true,"groupNames":["Collection"],"hidden":false,"hidpiCompositing":false,"objectColor":[1.0,1.0,1.0,1.0],"objectIndex":0,"renderOrder":0,"useShadows":true}},"mesh":1,"name":"Cube.001","scale":[0.25179606676101685,2.5345001220703125,6.433130264282227],"translation":[-7.046630382537842,3.347790479660034,3.708375930786133]},{"extensions":{"S8S_v3d_node":{"frustumCulling":true,"groupNames":["Collection"],"hidden":false,"hidpiCompositing":false,"objectColor":[1.0,1.0,1.0,1.0],"objectIndex":0,"renderOrder":0,"useShadows":true}},"mesh":0,"name":"Circle","rotation":[1.0,-0.0,0.0,0.0],"scale":[-11.820034980773926,-0.7215665578842163,-12.781827926635742],"translation":[-0.3579052686691284,0.5234260559082031,3.5289077758789062]},{"extensions":{"S8S_v3d_node":{"frustumCulling":true,"groupNames":["Collection"],"hidden":false,"hidpiCompositing":false,"objectColor":[1.0,1.0,1.0,1.0],"objectIndex":0,"renderOrder":0,"useShadows":true}},"mesh":7,"name":"Plane.002","rotation":[-0.7075015902519226,-0.0,0.0,0.7067117691040039],"scale":[2.769862413406372,1.187485694885254,1.853676199913025],"translation":[-3.123185634613037,3.668044328689575,9.493226051330566]},{"extensions":{"S8S_v3d_node":{"frustumCulling":true,"groupNames":["Collection"],"hidden":false,"hidpiCompositing":false,"objectColor":[1.0,1.0,1.0,1.0],"objectIndex":0,"renderOrder":0,"useShadows":true}},"mesh":9,"name":"Plane.004","rotation":[-0.48988357186317444,-0.5098932981491089,-0.5104631185531616,0.48933663964271545],"scale":[1.104164719581604,1.186638593673706,0.8978717923164368],"translation":[-6.760987281799316,4.766627311706543,-0.6217581629753113]},{"extensions":{"S8S_v3d_node":{"frustumCulling":true,"groupNames":["Collection"],"hidden":false,"hidpiCompositing":false,"objectColor":[1.0,1.0,1.0,1.0],"objectIndex":0,"renderOrder":0,"useShadows":true}},"mesh":3,"name":"Cube.003","rotation":[0.0,0.7071067690849304,-0.0,0.7071067690849304],"scale":[0.28515467047691345,2.560809850692749,7.285407066345215],"translation":[0.018890101462602615,3.3749959468841553,9.821749687194824]},{"extensions":{"S8S_v3d_node":{"frustumCulling":true,"groupNames":["Collection"],"hidden":false,"hidpiCompositing":false,"objectColor":[1.0,1.0,1.0,1.0],"objectIndex":0,"renderOrder":0,"useShadows":true}},"mesh":5,"name":"Plane","rotation":[-0.7075015902519226,-0.0,0.0,0.7067117691040039],"scale":[1.0,1.0000009536743164,1.5610110759735107],"translation":[4.542994976043701,3.0601277351379395,9.440258026123047]},{"extensions":{"S8S_v3d_node":{"frustumCulling":true,"groupNames":["Collection"],"hidden":false,"hidpiCompositing":false,"objectColor":[1.0,1.0,1.0,1.0],"objectIndex":0,"renderOrder":0,"useShadows":true}},"mesh":12,"name":"Plane.006","rotation":[-0.48988357186317444,-0.5098932981491089,-0.5104631185531616,0.48933666944503784],"scale":[4.093766689300537,1.8917409181594849,1.7315244674682617],"translation":[6.5682902336120605,3.7254257202148438,3.577000379562378]},{"extensions":{"S8S_v3d_node":{"frustumCulling":true,"groupNames":["Collection"],"hidden":false,"hidpiCompositing":false,"objectColor":[1.0,1.0,1.0,1.0],"objectIndex":0,"renderOrder":0,"useShadows":true}},"mesh":4,"name":"Cube.004","rotation":[0.0,0.7071067690849304,-0.0,0.7071067690849304],"scale":[0.28515467047691345,2.560809850692749,7.285407066345215],"translation":[0.018890101462602615,3.3749959468841553,9.821749687194824]},{"extensions":{"S8S_v3d_lights":{"light":0},"S8S_v3d_node":{"frustumCulling":true,"groupNames":["Collection"],"hidden":false,"hidpiCompositing":false,"objectColor":[0.0,0.0,0.0,0.0],"objectIndex":0,"renderOrder":0}},"name":"Light","rotation":[-0.28416624665260315,0.7269423007965088,0.34203392267227173,0.5232754945755005],"scale":[3.7096540927886963,1.2485384941101074,1.2911739349365234],"translation":[4.076245307922363,5.903861999511719,-12.39222526550293]},{"extensions":{"S8S_v3d_node":{"frustumCulling":true,"groupNames":["Collection"],"hidden":false,"hidpiCompositing":false,"objectColor":[1.0,1.0,1.0,1.0],"objectIndex":0,"renderOrder":0,"useShadows":true}},"mesh":11,"name":"Plane.007","rotation":[-0.49585068225860596,0.5041053891181946,0.5046687722206116,0.4952971637248993],"scale":[1.0074143409729004,1.0074154138565063,1.5725847482681274],"translation":[6.983980178833008,4.240238189697266,4.5795979499816895]},{"extensions":{"S8S_v3d_node":{"frustumCulling":true,"groupNames":["Collection"],"hidden":false,"hidpiCompositing":false,"objectColor":[1.0,1.0,1.0,1.0],"objectIndex":0,"renderOrder":0,"useShadows":true}},"mesh":6,"name":"Plane.001","rotation":[-0.7075015902519226,-0.0,0.0,0.7067117691040039],"scale":[1.0074143409729004,1.0074154138565063,1.5725847482681274],"translation":[1.4417656660079956,3.8583033084869385,9.393061637878418]},{"camera":0,"extensions":{"S8S_v3d_node":{"frustumCulling":true,"groupNames":["Collection"],"hidden":false,"hidpiCompositing":false,"objectColor":[1.0,1.0,1.0,1.0],"objectIndex":0,"renderOrder":0}},"name":"Camera.001","rotation":[-0.003708334406837821,-0.9839811325073242,-0.17703840136528015,0.020610518753528595],"scale":[1.0,1.0,0.9999998807907104],"translation":[0.04591822624206543,15.146265029907227,-33.19712448120117]},{"extensions":{"S8S_v3d_node":{"frustumCulling":true,"groupNames":["Collection"],"hidden":false,"hidpiCompositing":false,"objectColor":[1.0,1.0,1.0,1.0],"objectIndex":0,"renderOrder":0,"useShadows":true}},"mesh":13,"name":"Suzanne","rotation":[-0.0235607773065567,-0.9977887868881226,0.0537271611392498,0.031236955896019936],"scale":[1.910791039466858,3.1172661781311035,1.9738534688949585],"translation":[0.08477410674095154,4.020672798156738,2.552793502807617]},{"extensions":{"S8S_v3d_node":{"frustumCulling":true,"groupNames":["Collection"],"hidden":false,"hidpiCompositing":false,"objectColor":[1.0,1.0,1.0,1.0],"objectIndex":0,"renderOrder":0,"useShadows":true}},"mesh":8,"name":"Plane.003","rotation":[-0.48988351225852966,-0.5098932385444641,-0.5104631185531616,0.48933660984039307],"scale":[2.769862413406372,1.187485694885254,1.853676199913025],"translation":[-6.578282356262207,3.3324086666107178,3.8449230194091797]},{"extensions":{"S8S_v3d_node":{"frustumCulling":true,"groupNames":["Collection"],"hidden":false,"hidpiCompositing":false,"objectColor":[1.0,1.0,1.0,1.0],"objectIndex":0,"renderOrder":0,"useShadows":true}},"mesh":10,"name":"Plane.005","rotation":[-0.48988357186317444,-0.5098932981491089,-0.5104631185531616,0.48933663964271545],"scale":[1.104164719581604,1.186638593673706,0.8978717923164368],"translation":[-6.734616756439209,1.8039391040802002,8.070174217224121]}],"scene":0,"scenes":[{"extensions":{"S8S_v3d_scene":{"aaMethod":"AUTO","iblEnvironmentMode":"PMREM","physicallyCorrectLights":true,"pmremMaxTileSize":512,"shadowMap":{"esmDistanceScale":1.0,"renderReverseSided":false,"renderSingleSided":true,"type":"PCFPOISSON"},"toneMapping":{"look":"NONE","type":"agxBlender"},"worldMaterial":2}},"extras":{"animFrameRate":24,"coordSystem":"Z_UP_RIGHT"},"name":"Scene","nodes":[9,2,1,0,5,8,6,11,3,14,4,15,10,12,13,7]}]}
